<?xml version="1.0" encoding="UTF-8" standalone="no"?>
<!DOCTYPE svg PUBLIC "-//W3C//DTD SVG 1.1//EN" "http://www.w3.org/Graphics/SVG/1.1/DTD/svg11.dtd">
<svg width="100%" height="100%" viewBox="0 0 256 256" version="1.1" xmlns="http://www.w3.org/2000/svg" xmlns:xlink="http://www.w3.org/1999/xlink" xml:space="preserve" xmlns:serif="http://www.serif.com/" style="fill-rule:evenodd;clip-rule:evenodd;stroke-linecap:round;stroke-linejoin:round;stroke-miterlimit:1.5;">
    <g id="pancakes" transform="matrix(2,0,0,2,0,0)">
        <clipPath id="_clip1">
            <circle cx="64" cy="64" r="63.201"/>
        </clipPath>
        <g clip-path="url(#_clip1)">
            <rect x="-34.633" y="-17.812" width="183.06" height="169.738" style="fill:url(#_Linear2);"/>
            <g transform="matrix(1,0,0,0.811321,-2.5763,43.287)">
                <path d="M67.123,33.528C100.885,32.172 122.916,47.547 126.041,66.443C126.709,70.482 127.176,74.167 124.98,76.863C120.423,82.456 112.861,89.223 103.336,93.147C92.049,97.798 78.007,99.115 62.942,99.088C50.176,99.064 39.301,95.72 30.103,92.246C18.648,87.919 12.407,82.223 7.258,72.591C6.015,70.266 5.463,64.771 6.114,61.969C11.174,40.186 34.258,34.847 67.123,33.528Z" style="fill:rgb(51,53,51);"/>
                <clipPath id="_clip3">
                    <path d="M67.123,33.528C100.885,32.172 122.916,47.547 126.041,66.443C126.709,70.482 127.176,74.167 124.98,76.863C120.423,82.456 112.861,89.223 103.336,93.147C92.049,97.798 78.007,99.115 62.942,99.088C50.176,99.064 39.301,95.72 30.103,92.246C18.648,87.919 12.407,82.223 7.258,72.591C6.015,70.266 5.463,64.771 6.114,61.969C11.174,40.186 34.258,34.847 67.123,33.528Z"/>
                </clipPath>
                <g clip-path="url(#_clip3)">
                    <g transform="matrix(1.28668,0,0,2.07819,-14.4123,-138.031)">
                        <path d="M111.417,99.67C102.797,110.537 87.759,115.075 61.947,115.075C41.42,115.075 19.226,106.47 17.565,104.43C15.755,102.207 15.407,100.719 13.607,98.338C27.957,105.585 42.067,110.954 64.515,110.954C86.527,110.954 97.121,106.672 111.417,99.67Z" style="fill:rgb(171,168,168);"/>
                    </g>
                </g>
            </g>
            <g transform="matrix(1,0,0,0.811321,-0.486096,31.2958)">
                <path d="M67.123,33.528C100.885,32.172 122.916,47.547 126.041,66.443C126.709,70.482 127.176,74.167 124.98,76.863C120.423,82.456 112.861,89.223 103.336,93.147C92.049,97.798 78.007,99.115 62.942,99.088C50.176,99.064 39.301,95.72 30.103,92.246C18.648,87.919 12.407,82.223 7.258,72.591C6.015,70.266 5.463,64.771 6.114,61.969C11.174,40.186 34.258,34.847 67.123,33.528Z" style="fill:rgb(51,53,51);"/>
                <clipPath id="_clip4">
                    <path d="M67.123,33.528C100.885,32.172 122.916,47.547 126.041,66.443C126.709,70.482 127.176,74.167 124.98,76.863C120.423,82.456 112.861,89.223 103.336,93.147C92.049,97.798 78.007,99.115 62.942,99.088C50.176,99.064 39.301,95.72 30.103,92.246C18.648,87.919 12.407,82.223 7.258,72.591C6.015,70.266 5.463,64.771 6.114,61.969C11.174,40.186 34.258,34.847 67.123,33.528Z"/>
                </clipPath>
                <g clip-path="url(#_clip4)">
                    <g transform="matrix(1.28668,0,0,2.07819,-14.4123,-138.031)">
                        <path d="M111.417,99.67C102.797,110.537 87.759,115.075 61.947,115.075C41.42,115.075 19.226,106.47 17.565,104.43C15.755,102.207 15.407,100.719 13.607,98.338C27.957,105.585 42.067,110.954 64.515,110.954C86.527,110.954 97.121,106.672 111.417,99.67Z" style="fill:rgb(171,168,168);"/>
                    </g>
                </g>
            </g>
            <g transform="matrix(1,0,0,0.811321,-3.78642,18.9746)">
                <path d="M67.123,33.528C100.885,32.172 122.916,47.547 126.041,66.443C126.709,70.482 127.176,74.167 124.98,76.863C120.423,82.456 112.861,89.223 103.336,93.147C92.049,97.798 78.007,99.115 62.942,99.088C50.176,99.064 39.301,95.72 30.103,92.246C18.648,87.919 12.407,82.223 7.258,72.591C6.015,70.266 5.463,64.771 6.114,61.969C11.174,40.186 34.258,34.847 67.123,33.528Z" style="fill:rgb(51,53,51);"/>
                <clipPath id="_clip5">
                    <path d="M67.123,33.528C100.885,32.172 122.916,47.547 126.041,66.443C126.709,70.482 127.176,74.167 124.98,76.863C120.423,82.456 112.861,89.223 103.336,93.147C92.049,97.798 78.007,99.115 62.942,99.088C50.176,99.064 39.301,95.72 30.103,92.246C18.648,87.919 12.407,82.223 7.258,72.591C6.015,70.266 5.463,64.771 6.114,61.969C11.174,40.186 34.258,34.847 67.123,33.528Z"/>
                </clipPath>
                <g clip-path="url(#_clip5)">
                    <g transform="matrix(1.28668,0,0,2.07819,-14.4123,-138.031)">
                        <path d="M111.417,99.67C102.797,110.537 87.759,115.075 61.947,115.075C41.42,115.075 19.226,106.47 17.565,104.43C15.755,102.207 15.407,100.719 13.607,98.338C27.957,105.585 42.067,110.954 64.515,110.954C86.527,110.954 97.121,106.672 111.417,99.67Z" style="fill:rgb(171,168,168);"/>
                    </g>
                </g>
            </g>
            <g transform="matrix(1,0,0,0.811321,-1.03615,5.99336)">
                <path d="M67.123,33.528C100.885,32.172 122.916,47.547 126.041,66.443C126.709,70.482 127.176,74.167 124.98,76.863C120.423,82.456 112.861,89.223 103.336,93.147C92.049,97.798 78.007,99.115 62.942,99.088C50.176,99.064 39.301,95.72 30.103,92.246C18.648,87.919 12.407,82.223 7.258,72.591C6.015,70.266 5.463,64.771 6.114,61.969C11.174,40.186 34.258,34.847 67.123,33.528Z" style="fill:rgb(51,53,51);"/>
                <clipPath id="_clip6">
                    <path d="M67.123,33.528C100.885,32.172 122.916,47.547 126.041,66.443C126.709,70.482 127.176,74.167 124.98,76.863C120.423,82.456 112.861,89.223 103.336,93.147C92.049,97.798 78.007,99.115 62.942,99.088C50.176,99.064 39.301,95.72 30.103,92.246C18.648,87.919 12.407,82.223 7.258,72.591C6.015,70.266 5.463,64.771 6.114,61.969C11.174,40.186 34.258,34.847 67.123,33.528Z"/>
                </clipPath>
                <g clip-path="url(#_clip6)">
                    <g transform="matrix(1.28668,0,0,2.07819,-14.4123,-138.031)">
                        <path d="M111.417,99.67C102.797,110.537 87.759,115.075 61.947,115.075C41.42,115.075 19.226,106.47 17.565,104.43C15.755,102.207 15.407,100.719 13.607,98.338C27.957,105.585 42.067,110.954 64.515,110.954C86.527,110.954 97.121,106.672 111.417,99.67Z" style="fill:rgb(171,168,168);"/>
                    </g>
                </g>
            </g>
        </g>
    </g>
    <g id="pancake-outline" serif:id="pancake outline" transform="matrix(1.93035,0,0,1.93035,7.71066,6.35928)">
        <circle cx="62.315" cy="63.533" r="63.201" style="fill:none;stroke:rgb(30,215,96);stroke-width:5.18px;"/>
    </g>
    <g id="play-icon-shadow" serif:id="play icon shadow" transform="matrix(1.00483e-15,16.4101,-16.6513,1.0196e-15,840.602,-1416.07)">
        <path d="M95.189,37.58L100.912,46.45L89.466,46.45L95.189,37.58Z" style="fill-opacity:0.5;"/>
    </g>
    <g id="play-icon" serif:id="play icon" transform="matrix(1.00483e-15,16.4101,-16.6513,1.0196e-15,849.602,-1434.07)">
        <path d="M95.189,37.58L100.912,46.45L89.466,46.45L95.189,37.58Z" style="fill:white;"/>
        <clipPath id="_clip7">
            <path d="M95.189,37.58L100.912,46.45L89.466,46.45L95.189,37.58Z"/>
        </clipPath>
        <g clip-path="url(#_clip7)">
            <g transform="matrix(3.73138e-18,-0.0600554,0.060938,3.67733e-18,87.3892,51.0232)">
                <g id="edges">
                    <g id="front-edge" serif:id="front edge">
                        <g transform="matrix(2.57335,0,0,3.37216,-33.9773,-137.4)">
                            <path d="M111.417,99.67C102.797,110.537 87.759,115.075 61.947,115.075C41.42,115.075 19.226,106.47 17.565,104.43C15.755,102.207 15.407,100.719 13.607,98.338C27.957,105.585 42.067,110.954 64.515,110.954C86.527,110.954 97.121,106.672 111.417,99.67Z" style="fill:url(#_Linear8);"/>
                        </g>
                        <g transform="matrix(2.57335,0,0,3.37216,-29.7969,-161.383)">
                            <path d="M111.417,99.67C102.797,110.537 87.759,115.075 61.947,115.075C41.42,115.075 19.226,106.47 17.565,104.43C15.755,102.207 15.407,100.719 13.607,98.338C27.957,105.585 42.067,110.954 64.515,110.954C86.527,110.954 97.121,106.672 111.417,99.67Z" style="fill:url(#_Linear9);"/>
                        </g>
                        <g transform="matrix(2.57335,0,0,3.37216,-36.3975,-186.025)">
                            <path d="M111.417,99.67C102.797,110.537 87.759,115.075 61.947,115.075C41.42,115.075 19.226,106.47 17.565,104.43C15.755,102.207 15.407,100.719 13.607,98.338C27.957,105.585 42.067,110.954 64.515,110.954C86.527,110.954 97.121,106.672 111.417,99.67Z" style="fill:url(#_Linear10);"/>
                        </g>
                        <g transform="matrix(2.57335,0,0,3.37216,-30.897,-211.987)">
                            <path d="M111.417,99.67C102.797,110.537 87.759,115.075 61.947,115.075C41.42,115.075 19.226,106.47 17.565,104.43C15.755,102.207 15.407,100.719 13.607,98.338C27.957,105.585 42.067,110.954 64.515,110.954C86.527,110.954 97.121,106.672 111.417,99.67Z" style="fill:url(#_Linear11);"/>
                        </g>
                    </g>
                </g>
            </g>
        </g>
    </g>
    <defs>
        <linearGradient id="_Linear2" x1="0" y1="0" x2="1" y2="0" gradientUnits="userSpaceOnUse" gradientTransform="matrix(127.04,127.04,-127.04,127.04,-0.0477143,-0.748406)"><stop offset="0" style="stop-color:rgb(30,215,96);stop-opacity:1"/><stop offset="1" style="stop-color:rgb(0,145,52);stop-opacity:1"/></linearGradient>
        <linearGradient id="_Linear8" x1="0" y1="0" x2="1" y2="0" gradientUnits="userSpaceOnUse" gradientTransform="matrix(-85.8637,86.0478,-112.758,-65.524,109.165,39.7411)"><stop offset="0" style="stop-color:rgb(186,186,186);stop-opacity:1"/><stop offset="1" style="stop-color:white;stop-opacity:1"/></linearGradient>
        <linearGradient id="_Linear9" x1="0" y1="0" x2="1" y2="0" gradientUnits="userSpaceOnUse" gradientTransform="matrix(-85.8637,86.0478,-112.758,-65.524,107.541,46.853)"><stop offset="0" style="stop-color:rgb(186,186,186);stop-opacity:1"/><stop offset="1" style="stop-color:white;stop-opacity:1"/></linearGradient>
        <linearGradient id="_Linear10" x1="0" y1="0" x2="1" y2="0" gradientUnits="userSpaceOnUse" gradientTransform="matrix(-85.8637,86.0478,-112.758,-65.524,110.106,54.1605)"><stop offset="0" style="stop-color:rgb(186,186,186);stop-opacity:1"/><stop offset="1" style="stop-color:white;stop-opacity:1"/></linearGradient>
        <linearGradient id="_Linear11" x1="0" y1="0" x2="1" y2="0" gradientUnits="userSpaceOnUse" gradientTransform="matrix(-85.8637,86.0478,-112.758,-65.524,107.968,61.8596)"><stop offset="0" style="stop-color:rgb(186,186,186);stop-opacity:1"/><stop offset="1" style="stop-color:white;stop-opacity:1"/></linearGradient>
    </defs>
</svg>
